<svg width="31" height="30" viewBox="0 0 31 30" fill="none" xmlns="http://www.w3.org/2000/svg">
<path fill-rule="evenodd" clip-rule="evenodd" d="M4.86326 0.074079C2.87673 0.435938 1.22394 1.84053 0.565188 3.72671C0.227861 4.69263 0.238714 4.28487 0.25778 15.2436C0.274031 24.6083 0.282361 25.3315 0.377927 25.6866C0.964348 27.8659 2.50831 29.3964 4.61956 29.8914C5.06055 29.9948 5.56431 30 15.261 30C24.9576 30 25.4614 29.9948 25.9024 29.8914C28.0268 29.3933 29.6435 27.776 30.1415 25.6508C30.2448 25.2097 30.25 24.7057 30.25 15.0057C30.25 5.3056 30.2448 4.80166 30.1415 4.36052C29.6466 2.24852 28.1167 0.704076 25.9381 0.117331C25.5827 0.0216136 24.8687 0.013867 15.437 0.00301003C6.9494 -0.00673188 5.24394 0.00471193 4.86326 0.074079ZM25.4566 1.83449C26.5855 2.06395 27.6146 2.8527 28.0976 3.85858C28.5453 4.79075 28.5194 4.10553 28.5194 15.0057C28.5194 25.9183 28.5458 25.2286 28.093 26.1561C27.7512 26.8561 27.1072 27.5003 26.4074 27.8422C25.4803 28.2952 26.1697 28.2688 15.261 28.2688C4.35222 28.2688 5.0416 28.2952 4.11451 27.8422C3.41469 27.5003 2.77072 26.8561 2.42893 26.1561C1.97615 25.2286 2.00255 25.9183 2.00255 15.0057C2.00255 4.09309 1.97615 4.78271 2.42893 3.85529C2.91128 2.86731 3.94256 2.06583 5.02383 1.83848C5.37529 1.76459 6.84545 1.75145 15.2194 1.7474C23.8817 1.74312 25.0563 1.75315 25.4566 1.83449ZM15.0372 5.67627C14.9301 5.70033 14.775 5.78237 14.6923 5.85866C14.3716 6.15432 14.381 5.9954 14.381 11.1438V15.9126L12.6943 14.2311C11.2536 12.7947 10.9763 12.5438 10.7923 12.5102C10.1859 12.3994 9.7464 12.7865 9.7464 13.4315V13.7411L12.2867 16.2843C14.4303 18.4303 14.8608 18.835 15.044 18.8763C15.5424 18.9888 15.4965 19.026 18.2352 16.2843L20.7755 13.7411V13.4315C20.7755 12.9357 20.5199 12.5863 20.0995 12.5074C19.654 12.4238 19.6109 12.4565 17.8286 14.2317L16.1429 15.9106L16.1273 11.061C16.1118 6.26671 16.1102 6.20943 15.9906 6.04927C15.7412 5.71506 15.4213 5.58988 15.0372 5.67627ZM6.32063 22.7477C5.7734 23.1085 5.78701 23.9182 6.34585 24.2467C6.54784 24.3654 6.60433 24.3661 15.261 24.3661C23.9176 24.3661 23.9741 24.3654 24.1761 24.2467C24.7382 23.9163 24.7448 23.0655 24.1878 22.7376C24.0238 22.641 23.491 22.6349 15.2519 22.6353C6.72923 22.6356 6.48583 22.6387 6.32063 22.7477Z" fill="white"/>
</svg>
