<svg width="383" height="233" viewBox="0 0 383 233" fill="none" xmlns="http://www.w3.org/2000/svg">
<path fill-rule="evenodd" clip-rule="evenodd" d="M312.303 56.124C349.945 86.6048 381.164 112.299 381.677 113.222C382.846 115.324 382.053 117.8 379.92 118.706C379.025 119.087 366.136 119.892 351.278 120.496L324.264 121.594L305.223 176.214C288.727 223.532 285.993 230.918 284.77 231.472C282.834 232.351 259.724 232.982 248.248 232.47C219.18 231.175 196.959 226.948 169.095 217.413C145.429 209.315 128.748 201.344 108.705 188.556C93.0932 178.595 69.0473 159.443 68.5773 156.593C68.4152 155.61 75.0774 135.249 86.7522 101.047L105.183 47.0518L92.9883 36.767C86.281 31.1098 78.4539 24.484 75.5943 22.0426C72.7343 19.6003 70.1365 17.5148 69.821 17.4071C69.5055 17.2994 63.911 32.8433 57.3893 51.9494L45.5319 86.6869L47.8252 87.9822C50.2708 89.3628 52.4196 93.637 52.1112 96.5091C51.7483 99.8997 43.3699 146.896 42.7884 148.802C42.4575 149.89 41.3884 151.222 40.4141 151.76C38.7309 152.691 37.729 152.428 20.2354 146.456C2.77744 140.497 1.77968 140.075 0.888679 138.266C0.372043 137.217 0.1099 135.888 0.306118 135.313C1.45359 131.952 26.0083 86.6185 27.407 85.2791C29.2378 83.5264 33.1357 82.6324 35.4711 83.4296C36.9247 83.9258 36.9864 83.766 50.0956 45.3613C61.2676 12.6318 63.4953 6.62266 64.8118 5.66385C65.6651 5.04196 68.2862 4.43806 70.6375 4.32196C77.5848 3.97854 243.001 0.357508 243.451 0.538945C243.677 0.629793 274.661 25.6431 312.303 56.124ZM166.259 11.1542L94.5649 12.7631L160.407 35.6345C224.547 57.9148 226.263 58.5503 226.789 60.2302C227.474 62.4172 226.942 63.9762 225.063 65.2879C223.619 66.2961 221.858 65.7443 156.011 43.6542L88.4412 20.9863L145.902 69.3087L203.363 117.631L282.7 114.371C326.335 112.577 362.765 111.073 363.655 111.029L365.273 110.949L364.072 109.807C358.516 104.521 241.02 10.1193 239.685 9.86938C238.732 9.69062 205.69 10.2686 166.259 11.1542ZM257.682 124.373C226.952 125.665 201.123 126.487 200.281 126.2C199.441 125.913 179.451 109.45 155.861 89.6167C132.27 69.783 112.875 53.5236 112.761 53.4847C112.647 53.4458 106.906 69.9608 100.004 90.1855L87.4535 126.957L97.0517 134.761C113.418 148.068 131.493 159.645 151.34 169.531C157.985 172.842 165.243 175.651 181.459 181.192C204.202 188.962 211.739 190.823 231.698 193.593C243.537 195.236 244.23 195.475 244.921 198.156C245.625 200.885 243.994 203.577 241.525 203.76C236.655 204.122 214.093 200.203 198.569 196.298C185.727 193.068 158.868 183.249 147.312 177.561C127.744 167.929 107.408 154.934 91.6416 141.986L84.3256 135.978L81.3613 145.312L78.3963 154.646L87.4591 161.927C100.922 172.743 110.069 179.109 122.883 186.582C167.67 212.7 216.693 225.094 268.812 223.476L279.26 223.152L282.616 213.969L285.972 204.786L280.092 205.057C276.858 205.206 273.432 205.074 272.479 204.764C270.353 204.072 268.782 201.432 269.407 199.601C270.383 196.742 272.257 196.128 280.571 195.942L289.001 195.754L301.557 158.984C308.462 138.761 313.986 122.172 313.833 122.119C313.679 122.067 288.411 123.081 257.682 124.373ZM301.002 133.471C302.741 137.496 298.203 143.758 294.47 142.484C290.645 141.178 291.017 132.977 294.979 131.277C297.229 130.311 300.086 131.352 301.002 133.471ZM294.651 151.272C295.534 153.064 295.267 154.127 290.255 168.812C285.242 183.497 284.803 184.5 283.009 185.379C281.959 185.893 280.459 186.095 279.675 185.827C278.892 185.56 277.828 184.483 277.312 183.434C276.429 181.642 276.695 180.579 281.708 165.894C286.721 151.209 287.16 150.206 288.954 149.327C290.004 148.813 291.504 148.611 292.288 148.879C293.071 149.146 294.135 150.223 294.651 151.272ZM23.2068 110.977C17.8703 121.155 12.9595 130.456 12.2944 131.647L11.0837 133.813L22.8681 137.835C33.174 141.353 34.7004 141.715 35.0382 140.725C35.2509 140.102 37.1274 129.887 39.2082 118.026C41.289 106.164 43.0612 96.2546 43.1463 96.0052C43.2312 95.7565 40.9624 94.8598 38.1051 94.0122L32.9093 92.472L23.2068 110.977Z" fill="#83A26C" fill-opacity="0.4"/>
</svg>
