<svg width="377" height="400" viewBox="0 0 377 400" fill="none" xmlns="http://www.w3.org/2000/svg">
<path fill-rule="evenodd" clip-rule="evenodd" d="M51.3933 -42.5967C44.2673 -41.6247 41.0343 -40.7407 40.1433 -39.5237C39.4183 -38.5317 38.8933 -34.7997 38.8933 -30.6307C38.8933 -19.1577 38.4223 -17.9397 33.1333 -15.7517C30.6013 -14.7057 25.6213 -11.8977 22.0643 -9.51267L15.5983 -5.17667L6.11429 -10.2437C0.899292 -13.0297 -3.9287 -15.0957 -4.61271 -14.8327C-6.6217 -14.0617 -20.1067 3.89233 -20.1067 5.79533C-20.1067 6.75233 -16.9997 11.0143 -13.2027 15.2663L-6.29971 22.9973L-8.63871 29.6503C-9.92471 33.3093 -11.5687 38.9653 -12.2917 42.2193L-13.6067 48.1353L-23.1067 51.0423C-28.3317 52.6413 -33.0857 54.5633 -33.6717 55.3143C-35.2807 57.3773 -32.3937 79.9093 -30.3087 81.5533C-29.3747 82.2903 -25.7757 82.8033 -21.5407 82.8033C-9.94771 82.8033 -8.69371 83.2943 -6.20271 88.8053C-5.00871 91.4483 -2.24971 96.3663 -0.0727119 99.7343L3.88529 105.858L-0.610706 114.811C-3.08371 119.735 -5.10671 124.612 -5.10671 125.65C-5.10671 127.789 12.4973 141.803 15.1843 141.803C16.0873 141.803 20.3303 138.709 24.6163 134.926L32.4073 128.05L41.4003 130.886C46.3463 132.446 51.9683 133.974 53.8933 134.281C57.3633 134.835 57.4213 134.928 60.6493 145.217C62.4403 150.924 64.4653 155.803 65.1493 156.058C67.0503 156.768 89.2223 153.744 90.6433 152.581C91.3303 152.018 91.8963 149.701 91.9003 147.431C91.9043 145.16 92.1913 140.303 92.5373 136.637L93.1673 129.97L97.3453 128.374C99.6443 127.497 104.645 124.71 108.459 122.183L115.393 117.588L124.033 122.195C128.785 124.73 133.588 126.803 134.706 126.803C136.074 126.803 139.067 123.853 143.856 117.781C147.77 112.819 151.212 108.134 151.506 107.37C151.815 106.565 149.013 102.547 144.835 97.8063L137.631 89.6303L140.194 80.9673C141.604 76.2023 143.138 70.5213 143.603 68.3433L144.449 64.3843L154.232 61.2323C159.613 59.4993 164.462 57.6343 165.009 57.0873C166.251 55.8453 163.425 33.1483 161.78 31.1673C161.157 30.4173 158.791 29.8003 156.521 29.7963C154.25 29.7923 149.468 29.5083 145.893 29.1663L139.393 28.5423L136.472 22.1083C134.865 18.5693 132.083 13.6093 130.289 11.0863L127.028 6.49933L132.012 -3.43367C136.228 -11.8357 136.796 -13.6097 135.695 -14.9407C133.877 -17.1367 116.885 -30.1967 115.844 -30.1967C115.375 -30.1967 111.302 -26.9337 106.794 -22.9467C102.285 -18.9597 98.3263 -15.7937 97.9953 -15.9127C89.0933 -19.1017 82.4523 -21.0647 78.7083 -21.6137L74.0243 -22.2997L70.8253 -31.9977C69.0653 -37.3327 67.1813 -42.2587 66.6373 -42.9467C65.4763 -44.4147 64.5623 -44.3937 51.3933 -42.5967ZM65.2883 -26.6967C68.3533 -16.8507 69.6743 -15.1967 74.4713 -15.1967C77.6033 -15.1967 90.2993 -11.7077 96.5603 -9.12667C100.022 -7.69967 99.0313 -7.11066 112.41 -18.5427L116.426 -21.9747L122.659 -16.9927L128.891 -12.0107L124.392 -3.29966C121.918 1.49134 119.893 6.20133 119.893 7.16633C119.893 8.13133 121.35 10.7343 123.132 12.9503C124.913 15.1673 128.408 21.1033 130.9 26.1423L135.43 35.3033L139.911 35.5433C142.376 35.6763 147.165 36.0453 150.553 36.3633L156.713 36.9433L157.375 43.1233C157.739 46.5223 158.247 50.0503 158.504 50.9633C158.88 52.3003 157.021 53.2293 148.955 55.7353C142.823 57.6403 138.597 59.5173 138.054 60.5753C137.567 61.5253 136.906 64.6413 136.585 67.4983C136.263 70.3563 134.81 75.9813 133.356 79.9983C129.245 91.3543 129.114 90.5373 136.312 98.3033C139.881 102.153 142.821 105.904 142.847 106.637C142.872 107.371 140.859 110.561 138.373 113.725L133.853 119.479L124.362 114.585L114.871 109.691L106.587 115.202C102.032 118.234 95.7293 121.699 92.5813 122.904C86.1113 125.38 86.3033 124.968 85.4363 138.24C85.1153 143.155 84.7333 147.296 84.5873 147.442C84.4413 147.588 80.8233 147.842 76.5473 148.005L68.7733 148.303L65.8873 139.393C64.3003 134.493 62.4153 129.959 61.6973 129.318C60.9803 128.677 57.0743 127.616 53.0183 126.96C48.9623 126.303 42.8513 124.65 39.4393 123.285C36.0283 121.92 32.5883 120.803 31.7963 120.803C31.0043 120.803 27.0153 123.743 22.9323 127.336C18.8493 130.929 14.9623 133.66 14.2943 133.404C13.6273 133.147 10.6033 131.021 7.57629 128.678L2.07129 124.419L7.17729 114.827L12.2843 105.234L8.11429 99.7123C5.82129 96.6743 2.13129 90.3203 -0.0847054 85.5923L-4.11271 76.9953L-14.6887 76.2743C-21.0007 75.8443 -25.4277 75.1003 -25.6687 74.4283C-25.8907 73.8093 -26.1927 70.2013 -26.3397 66.4093L-26.6067 59.5163L-17.5847 56.4093C-6.2887 52.5213 -6.10671 52.3933 -6.10671 48.3573C-6.10671 46.5273 -4.95271 41.2663 -3.54171 36.6663C-2.13171 32.0663 -0.477711 26.6713 0.13229 24.6763C1.22929 21.0873 1.17429 20.9753 -5.1827 13.8843C-8.71571 9.94334 -11.7457 6.32233 -11.9147 5.83733C-12.0837 5.35233 -10.1167 2.24433 -7.5437 -1.06967L-2.86471 -7.09467L5.99429 -2.64566C10.8663 -0.198666 15.5013 1.80333 16.2933 1.80333C17.0853 1.80333 20.9293 -0.398666 24.8363 -3.08966C28.7433 -5.78066 34.5163 -9.01567 37.6663 -10.2777C40.8163 -11.5397 43.6923 -13.0157 44.0593 -13.5567C44.4253 -14.0987 45.0383 -19.1407 45.4213 -24.7617L46.1173 -34.9827L53.7553 -35.8837C57.9563 -36.3797 61.6393 -36.5407 61.9403 -36.2407C62.2413 -35.9417 63.7483 -31.6467 65.2883 -26.6967ZM51.8933 1.38633C36.6223 5.41533 21.6183 17.4853 15.0563 31.0223C4.19329 53.4283 8.38029 78.2183 26.0443 96.0843C36.2443 106.401 51.5813 112.84 65.8273 112.786C90.8943 112.69 114.004 94.2843 120.371 69.3433C127.851 40.0443 108.462 8.33533 78.7903 1.34034C70.8163 -0.538666 59.1153 -0.519665 51.8933 1.38633ZM80.1103 8.78833C96.3133 13.7933 109.135 27.1163 113.36 43.3383C115.117 50.0843 115.321 61.2323 113.808 67.8033C110.892 80.4613 100.932 93.3513 89.2993 99.5223C69.3023 110.128 47.4583 107.154 31.2853 91.6243C11.0073 72.1523 10.8373 40.9043 30.8993 20.8163C36.5413 15.1673 46.2653 9.61434 53.4783 7.92234C60.6343 6.24434 73.1943 6.65233 80.1103 8.78833ZM243.463 32.9693C237.452 33.4573 231.995 34.3033 231.336 34.8503C230.661 35.4103 229.582 41.4663 228.863 48.7263L227.587 61.6073L220.967 64.2043C217.326 65.6333 210.793 68.8273 206.449 71.3023C202.106 73.7783 198.291 75.7953 197.972 75.7843C197.654 75.7743 192.462 72.8493 186.435 69.2843C180.408 65.7203 174.968 62.8033 174.346 62.8033C172.727 62.8033 153.893 84.6333 153.893 86.5093C153.893 87.3703 157.181 92.1763 161.2 97.1893C165.218 102.202 168.806 106.803 169.173 107.414C169.54 108.026 168.288 112.301 166.392 116.914C164.495 121.528 162.23 128.486 161.357 132.376L159.771 139.449L147.726 142.343C141.102 143.935 134.99 145.743 134.146 146.36C132.81 147.337 132.732 149.389 133.55 162.141C134.067 170.204 134.953 177.263 135.518 177.828C136.287 178.597 157.275 181.732 162.065 181.794C162.435 181.799 163.285 183.491 163.954 185.553C165.401 190.018 171.129 201.632 174.578 207.096L177.039 210.995L170.418 222.059C166.776 228.144 163.93 233.923 164.094 234.901C164.412 236.793 185.676 255.835 187.384 255.757C187.939 255.732 193.118 251.957 198.893 247.37L209.393 239.029L212.893 240.793C218.578 243.659 230.161 247.571 235.196 248.326C240.457 249.115 239.687 247.626 243.976 265.303C245.177 270.253 246.662 274.842 247.277 275.5C248.132 276.417 251.784 276.452 262.893 275.649C270.868 275.072 277.89 274.195 278.498 273.699C279.105 273.204 280.142 267.963 280.801 262.051C282.631 245.641 282.398 246.268 287.191 244.833C292.121 243.356 302.876 238.033 307.969 234.547L311.546 232.099L322.969 238.907C329.252 242.652 334.883 245.735 335.482 245.759C337.163 245.827 355.893 223.897 355.893 221.86C355.893 220.87 352.309 215.573 347.928 210.09L339.963 200.121L343.31 192.423C345.15 188.189 347.452 181.218 348.425 176.933L350.193 169.142L361.793 166.34C378.746 162.246 377.277 164.19 376.446 146.949C375.961 136.86 375.323 131.872 374.398 130.919C373.574 130.071 368.023 128.951 360.045 128.023C347.413 126.554 347.018 126.436 346.387 123.923C345.347 119.78 339.267 107.147 335.94 102.218L332.883 97.6883L339.388 86.6623C342.966 80.5983 345.893 74.8183 345.893 73.8173C345.893 71.9903 324.789 52.8033 322.778 52.8033C322.21 52.8033 317.173 56.4033 311.586 60.8033C305.999 65.2033 300.842 68.8033 300.127 68.8033C299.412 68.8033 296.515 67.6313 293.689 66.1993C290.863 64.7683 284.577 62.5913 279.719 61.3633C274.862 60.1363 270.623 58.8673 270.3 58.5433C269.977 58.2203 268.369 52.6393 266.727 46.1403C265.084 39.6413 263.27 33.7573 262.694 33.0643C261.542 31.6753 259.532 31.6663 243.463 32.9693ZM258.538 41.5533C262.55 57.6893 264.612 64.2143 265.893 64.8203C266.718 65.2113 271.443 66.4993 276.393 67.6813C281.343 68.8643 288.702 71.4003 292.747 73.3173C296.791 75.2343 300.616 76.8013 301.247 76.7993C301.877 76.7973 306.668 73.3793 311.893 69.2043C317.118 65.0293 321.698 61.4233 322.072 61.1933C322.952 60.6483 337.893 73.7173 337.893 75.0323C337.893 75.5823 335.193 80.5013 331.893 85.9643C328.593 91.4273 325.893 96.7083 325.893 97.7013C325.893 98.6943 327.924 102.599 330.407 106.379C334.308 112.319 340.893 126.931 340.893 129.648C340.893 131.913 344.733 133.126 356.076 134.444C362.791 135.224 368.445 136.021 368.639 136.215C368.833 136.41 369.257 141.245 369.58 146.961L370.169 157.353L357.985 160.281C351.284 161.891 345.382 163.713 344.87 164.33C344.358 164.947 343.273 168.621 342.458 172.493C340.831 180.227 337.324 190.148 334.076 196.204C331.591 200.836 331.448 200.497 340.797 212.183C344.7 217.062 347.893 221.365 347.893 221.747C347.893 222.129 344.918 225.886 341.281 230.097C335.346 236.971 334.457 237.64 332.587 236.639C331.441 236.026 326.525 233.112 321.663 230.164C316.801 227.215 312.165 224.803 311.36 224.803C310.556 224.803 307.697 226.384 305.007 228.316C299.473 232.292 287.448 238.062 281.246 239.718C278.965 240.327 276.857 241.454 276.562 242.222C276.267 242.991 275.466 249.056 274.781 255.7L273.536 267.779L270.465 268.24C268.775 268.494 263.948 268.911 259.738 269.168L252.083 269.634L248.88 256.752C246.575 247.48 245.217 243.746 244.035 243.428C243.132 243.185 239.018 242.206 234.893 241.252C230.768 240.297 223.343 237.782 218.393 235.662C213.443 233.542 208.943 231.809 208.393 231.811C207.843 231.812 202.923 235.381 197.459 239.742L187.524 247.671L184.932 245.487C176.227 238.155 171.894 234.223 171.893 233.658C171.893 233.304 174.865 227.991 178.497 221.852L185.101 210.689L181.589 205.401C176.781 198.158 172.494 189.443 170.298 182.446C169.07 178.531 167.786 176.337 166.427 175.83C165.308 175.412 159.156 174.512 152.755 173.83L141.117 172.588L140.404 162.13C140.012 156.378 139.849 151.541 140.042 151.383C140.235 151.224 145.789 149.768 152.384 148.147C166.052 144.788 165.656 145.165 168.315 132.95C169.196 128.905 171.772 121.601 174.041 116.717C176.924 110.514 177.871 107.456 177.184 106.57C176.643 105.873 172.937 101.128 168.949 96.0263L161.697 86.7493L165.245 82.5263C167.197 80.2033 170.288 76.5713 172.114 74.4553L175.435 70.6073L186.414 77.2033C192.452 80.8313 197.954 83.8013 198.641 83.8013C199.327 83.8023 202.089 82.2223 204.779 80.2903C210.122 76.4513 221.944 70.7303 228.624 68.7513C233.463 67.3183 233.443 67.3603 234.883 55.3033C235.474 50.3533 236.185 44.8593 236.463 43.0943L236.968 39.8863L244.681 39.5463C248.922 39.3593 253.622 39.1153 255.124 39.0043C257.346 38.8413 257.982 39.3163 258.538 41.5533ZM238.393 87.7113C228.795 90.3533 224.502 92.2783 216.738 97.4223C190.953 114.503 180.024 147.375 190.303 176.933C193.9 187.274 198.447 194.327 207.091 202.968C225.362 221.235 252.613 227.512 277.061 219.086C298.37 211.741 314.124 195.156 321.025 172.803C323.98 163.229 324.194 146.731 321.49 136.803C315.503 114.813 297.752 96.1203 275.893 88.7863C266.409 85.6043 247.967 85.0753 238.393 87.7113ZM274.893 95.7063C310.321 108.093 326.594 147.587 310.291 181.612C307.46 187.518 304.724 191.181 298.499 197.397C285.897 209.979 272.1 215.803 254.893 215.803C239.206 215.803 224.57 210.109 213.403 199.663C205.108 191.904 200.224 184.429 196.533 173.847C192.516 162.331 192.204 148.151 195.718 136.803C201.958 116.647 218.049 100.752 238.393 94.6473C247.135 92.0233 265.919 92.5683 274.893 95.7063ZM54.1823 183.2C48.0163 183.807 42.5303 184.753 41.9913 185.303C41.2023 186.107 38.8933 203.21 38.8933 208.249C38.8933 208.928 37.0183 210.102 34.7253 210.858C32.4333 211.615 26.8033 214.387 22.2133 217.018C17.6243 219.65 13.5663 221.803 13.1953 221.803C12.8243 221.803 8.14929 219.328 2.80729 216.303C-2.53571 213.278 -7.33371 210.803 -7.85671 210.803C-9.00671 210.803 -25.4847 230.341 -25.9027 232.201C-26.0657 232.926 -22.8177 237.682 -18.6857 242.772L-11.1727 252.025L-12.7807 255.664C-14.8987 260.456 -19.1067 274.541 -19.1067 276.839C-19.1067 278.794 -20.1987 279.242 -33.9587 282.933C-38.5527 284.165 -42.5567 285.813 -42.8577 286.595C-43.1577 287.378 -42.9677 293.654 -42.4347 300.543C-41.6597 310.555 -41.1157 313.323 -39.7207 314.343C-38.7597 315.046 -33.2987 315.938 -27.5657 316.329C-21.8407 316.719 -16.7537 317.548 -16.2617 318.171C-15.7697 318.793 -14.8337 320.96 -14.1817 322.985C-13.5297 325.01 -10.8327 330.267 -8.18871 334.666L-3.38171 342.665L-8.74371 352.234C-11.6937 357.497 -14.1067 362.63 -14.1067 363.641C-14.1067 365.821 4.51929 381.803 7.06029 381.803C7.99629 381.803 12.5833 378.653 17.2553 374.803C21.9263 370.953 26.1183 367.805 26.5713 367.808C27.0233 367.81 30.0933 368.921 33.3933 370.277C36.6933 371.632 42.5713 373.456 46.4543 374.33L53.5163 375.92L56.4243 386.921C58.0243 392.972 59.8483 398.35 60.4773 398.873C61.8253 399.991 86.7753 398.001 88.5273 396.635C89.1513 396.149 89.9643 391.825 90.3343 387.027C91.4923 372.009 91.2573 372.539 97.8923 369.967C101.113 368.718 106.497 365.92 109.855 363.749C113.213 361.579 116.419 359.803 116.98 359.803C117.54 359.803 122.337 362.308 127.64 365.369C134.57 369.37 137.767 370.706 139.008 370.119C140.776 369.284 156.893 350.245 156.893 348.991C156.893 348.61 153.488 344.136 149.326 339.048L141.758 329.797L144.254 323.55C145.627 320.114 147.525 314.153 148.471 310.303C149.417 306.453 150.292 303.173 150.415 303.014C150.538 302.855 155.533 301.345 161.516 299.66C167.498 297.974 172.8 296.212 173.297 295.745C174.396 294.711 172.182 268.709 170.884 267.401C170.392 266.905 164.767 266.005 158.385 265.401L146.781 264.303L144.543 258.784C142.549 253.869 137.774 245.086 134.727 240.73C133.854 239.482 134.79 237.144 139.26 229.401C142.358 224.035 144.88 218.893 144.864 217.974C144.83 215.955 125.779 199.803 123.432 199.803C122.52 199.803 117.954 203.019 113.286 206.951L104.798 214.098L93.5963 210.489C87.4343 208.503 81.2113 206.642 79.7653 206.353C77.3633 205.871 76.8703 204.865 74.0203 194.627C70.9563 183.616 69.8793 181.703 66.8933 181.965C66.0683 182.038 60.3483 182.593 54.1823 183.2ZM68.4073 200.034C69.9303 205.682 71.5583 210.727 72.0273 211.246C72.4953 211.764 76.7233 212.967 81.4213 213.918C86.1193 214.869 92.9233 217.032 96.5403 218.725C100.158 220.418 103.789 221.803 104.609 221.803C105.429 221.803 109.541 218.956 113.746 215.476C117.952 211.995 121.955 208.819 122.643 208.417C123.817 207.73 136.668 217.336 136.826 219.019C136.863 219.412 134.365 224.242 131.275 229.752L125.658 239.77L130.356 246.646C132.94 250.428 136.573 257.298 138.43 261.913L141.807 270.303L147.1 271.031C150.011 271.431 155.318 272.106 158.893 272.531L165.393 273.303L166.179 281.239C166.611 285.603 166.769 289.685 166.529 290.309C166.29 290.933 161.312 292.711 155.468 294.26C149.624 295.809 144.648 297.391 144.41 297.775C144.173 298.159 143.252 302.035 142.365 306.388C141.478 310.741 139.163 318.027 137.222 322.578L133.692 330.852L137.165 335.078C139.076 337.402 142.473 341.518 144.716 344.225L148.794 349.146L143.652 355.225C140.824 358.568 138.207 361.67 137.836 362.118C137.466 362.566 132.718 360.429 127.285 357.368C121.852 354.307 117.014 351.803 116.534 351.803C116.054 351.803 112.515 353.895 108.668 356.452C104.822 359.01 98.2363 362.435 94.0343 364.064C89.8313 365.693 86.1043 367.487 85.7503 368.05C85.3963 368.614 84.7993 372.951 84.4223 377.689C84.0453 382.427 83.5013 387.304 83.2133 388.527C82.6603 390.877 81.6063 391.191 70.7733 392.244L65.1533 392.79L63.4403 386.546C58.9243 370.092 58.8143 369.818 56.5723 369.38C46.3663 367.385 38.3993 365.123 33.0053 362.687C29.4913 361.101 26.1803 359.803 25.6463 359.803C25.1133 359.803 21.2373 362.639 17.0353 366.105C12.8323 369.572 8.81829 372.756 8.11529 373.182C6.75029 374.009 -6.10671 364.289 -6.10671 362.43C-6.10671 361.867 -3.85671 357.449 -1.10671 352.613C1.64329 347.776 3.89329 343.154 3.89329 342.342C3.89329 341.53 1.8723 337.741 -0.598705 333.922C-3.06971 330.102 -6.38371 323.759 -7.96471 319.824C-9.54571 315.89 -11.2367 312.276 -11.7227 311.793C-12.2087 311.311 -17.5447 310.415 -23.5797 309.803C-29.6157 309.19 -34.6717 308.571 -34.8167 308.426C-34.9617 308.281 -35.1987 304.197 -35.3437 299.351L-35.6067 290.54L-24.7077 287.418L-13.8087 284.296L-11.6707 274.799C-10.4947 269.576 -8.31171 262.661 -6.81971 259.432C-5.32771 256.203 -4.10671 252.689 -4.10671 251.623C-4.10671 250.556 -7.28171 245.883 -11.1617 241.238L-18.2157 232.792L-12.5067 225.852L-6.79771 218.912L-3.70171 220.487C-1.99971 221.353 2.39729 223.803 6.0673 225.932C9.7383 228.061 13.3383 229.798 14.0673 229.792C14.7973 229.786 18.2583 227.781 21.7593 225.335C25.2613 222.889 31.3363 219.672 35.2593 218.186C39.1833 216.699 43.1263 214.673 44.0213 213.683C45.1853 212.396 45.8523 208.9 46.3633 201.404L47.0773 190.924L52.2353 190.363C60.0503 189.513 64.3263 189.227 65.0163 189.51C65.3593 189.65 66.8853 194.386 68.4073 200.034ZM50.8933 231.31C22.0733 238.335 2.34929 265.176 4.23629 294.803C6.23029 326.11 30.8473 350.132 62.3933 351.553C81.3303 352.406 95.0373 347.005 108.393 333.426C127.431 314.07 131.665 287.487 119.629 262.875C114.663 252.719 102.741 241.176 91.8933 236.022C87.2183 233.801 81.0083 231.493 78.0943 230.893C71.0493 229.444 57.7113 229.648 50.8933 231.31ZM83.3933 239.634C101.619 246.251 114.528 261.587 118.581 281.44C123.973 307.848 106.792 335.327 79.9613 343.208C71.7153 345.63 57.0113 345.303 48.8353 342.516C9.8673 329.231 -1.8507 281.618 26.7753 252.876C33.8233 245.799 42.1573 240.797 51.0053 238.331C58.9073 236.129 75.5873 236.8 83.3933 239.634Z" fill="#83A26C" fill-opacity="0.4"/>
</svg>
