<svg width="30" height="30" viewBox="0 0 30 30" fill="none" xmlns="http://www.w3.org/2000/svg">
<path fill-rule="evenodd" clip-rule="evenodd" d="M7.5 0.132743C7.37316 0.25958 7.36726 0.35396 7.36726 2.24794V4.2304L6.68496 4.26073C5.86075 4.29737 5.41321 4.47265 4.94296 4.94296C4.47265 5.41321 4.29737 5.86075 4.26073 6.68496L4.2304 7.36726H2.24794C0.35396 7.36726 0.25958 7.37316 0.132743 7.5C0.0597345 7.57301 0 7.69248 0 7.76549C0 7.8385 0.0597345 7.95796 0.132743 8.03097C0.25958 8.15781 0.35396 8.16372 2.25664 8.16372H4.24779V9.55752V10.9513H2.25664C0.35396 10.9513 0.25958 10.9572 0.132743 11.0841C-0.0362389 11.2531 -0.0362389 11.4461 0.132743 11.615C0.25958 11.7419 0.35396 11.7478 2.25664 11.7478H4.24779V13.1748V14.6018H2.25664C0.35396 14.6018 0.25958 14.6077 0.132743 14.7345C0.0597345 14.8075 0 14.927 0 15C0 15.073 0.0597345 15.1925 0.132743 15.2655C0.25958 15.3923 0.35396 15.3982 2.25664 15.3982H4.24779L4.24779 16.8252V18.2522H2.25664C0.35396 18.2522 0.25958 18.2581 0.132743 18.385C-0.0362389 18.5539 -0.0362389 18.7469 0.132743 18.9159C0.25958 19.0428 0.35396 19.0487 2.25664 19.0487H4.24779V20.4425V21.8363H2.25664C0.35396 21.8363 0.25958 21.8422 0.132743 21.969C-0.0362389 22.138 -0.0362389 22.331 0.132743 22.5C0.25958 22.6268 0.35396 22.6327 2.24794 22.6327H4.2304L4.26073 23.315C4.29737 24.1392 4.47265 24.5868 4.94296 25.057C5.41321 25.5273 5.86075 25.7026 6.68496 25.7393L7.36726 25.7696V27.7521C7.36726 29.646 7.37316 29.7404 7.5 29.8673C7.57301 29.9403 7.69248 30 7.76549 30C7.8385 30 7.95796 29.9403 8.03097 29.8673C8.15781 29.7404 8.16372 29.646 8.16372 27.7434V25.7522H9.55752H10.9513V27.7434C10.9513 29.646 10.9572 29.7404 11.0841 29.8673C11.1571 29.9403 11.2765 30 11.3496 30C11.4226 30 11.542 29.9403 11.615 29.8673C11.7419 29.7404 11.7478 29.646 11.7478 27.7434V25.7522H13.1748H14.6018V27.7434C14.6018 29.646 14.6077 29.7404 14.7345 29.8673C14.9035 30.0362 15.0965 30.0362 15.2655 29.8673C15.3923 29.7404 15.3982 29.646 15.3982 27.7434V25.7522H16.8252H18.2522V27.7434C18.2522 29.646 18.2581 29.7404 18.385 29.8673C18.5539 30.0362 18.7469 30.0362 18.9159 29.8673C19.0428 29.7404 19.0487 29.646 19.0487 27.7434V25.7522H20.4425H21.8363V27.7434C21.8363 29.646 21.8422 29.7404 21.969 29.8673C22.138 30.0362 22.331 30.0362 22.5 29.8673C22.6268 29.7404 22.6327 29.646 22.6327 27.7521V25.7696L23.315 25.7393C24.1392 25.7026 24.5868 25.5273 25.057 25.057C25.5273 24.5868 25.7026 24.1392 25.7393 23.315L25.7696 22.6327H27.7521C29.646 22.6327 29.7404 22.6268 29.8673 22.5C30.0362 22.331 30.0362 22.138 29.8673 21.969C29.7404 21.8422 29.646 21.8363 27.7434 21.8363H25.7522V20.4425V19.0487H27.7434C29.646 19.0487 29.7404 19.0428 29.8673 18.9159C29.9403 18.8429 30 18.7235 30 18.6504C30 18.5774 29.9403 18.458 29.8673 18.385C29.7404 18.2581 29.646 18.2522 27.7434 18.2522H25.7522V16.8252V15.3982H27.7434C29.646 15.3982 29.7404 15.3923 29.8673 15.2655C30.0362 15.0965 30.0362 14.9035 29.8673 14.7345C29.7404 14.6077 29.646 14.6018 27.7434 14.6018H25.7522V13.1748V11.7478H27.7434C29.646 11.7478 29.7404 11.7419 29.8673 11.615C30.0362 11.4461 30.0362 11.2531 29.8673 11.0841C29.7404 10.9572 29.646 10.9513 27.7434 10.9513H25.7522V9.55752V8.16372H27.7434C29.646 8.16372 29.7404 8.15781 29.8673 8.03097C30.0362 7.86199 30.0362 7.66898 29.8673 7.5C29.7404 7.37316 29.646 7.36726 27.7521 7.36726H25.7696L25.7393 6.68496C25.7026 5.86075 25.5273 5.41321 25.057 4.94296C24.5868 4.47265 24.1392 4.29737 23.315 4.26073L22.6327 4.2304V2.24794C22.6327 0.35396 22.6268 0.25958 22.5 0.132743C22.427 0.0597345 22.3075 0 22.2345 0C22.1615 0 22.042 0.0597345 21.969 0.132743C21.8422 0.25958 21.8363 0.35396 21.8363 2.25664V4.24779H20.4425H19.0487V2.25664C19.0487 0.35396 19.0428 0.25958 18.9159 0.132743C18.8429 0.0597345 18.7235 0 18.6504 0C18.5774 0 18.458 0.0597345 18.385 0.132743C18.2581 0.25958 18.2522 0.35396 18.2522 2.25664V4.24779H16.8252L15.3982 4.24779V2.25664C15.3982 0.35396 15.3923 0.25958 15.2655 0.132743C15.0965 -0.0362389 14.9035 -0.0362389 14.7345 0.132743C14.6077 0.25958 14.6018 0.35396 14.6018 2.25664V4.24779H13.1748H11.7478V2.25664C11.7478 0.35396 11.7419 0.25958 11.615 0.132743C11.4461 -0.0362389 11.2531 -0.0362389 11.0841 0.132743C10.9572 0.25958 10.9513 0.35396 10.9513 2.25664V4.24779H9.55752H8.16372V2.25664C8.16372 0.35396 8.15781 0.25958 8.03097 0.132743C7.95796 0.0597345 7.8385 0 7.76549 0C7.69248 0 7.57301 0.0597345 7.5 0.132743ZM23.9193 5.12496C24.2839 5.23268 24.8337 5.7825 24.9414 6.14708C25.0582 6.54259 25.0582 23.5238 24.9414 23.9193C24.8337 24.2839 24.2839 24.8337 23.9193 24.9414C23.5238 25.0582 6.54259 25.0582 6.14708 24.9414C5.7825 24.8337 5.23268 24.2839 5.12496 23.9193C5.00814 23.5238 5.00814 6.54259 5.12496 6.14708C5.22485 5.80898 5.78044 5.23367 6.10619 5.131C6.45617 5.02069 23.5467 5.01491 23.9193 5.12496ZM6.17257 6.23894C5.88106 6.53044 6.06883 7.23451 6.43805 7.23451C6.67075 7.23451 6.83628 7.00002 6.83628 6.67035C6.83628 6.34069 6.67075 6.10619 6.43805 6.10619C6.36504 6.10619 6.24557 6.16593 6.17257 6.23894ZM6.14967 8.01962C6.05277 8.12668 6.03982 8.36867 6.03982 10.0771C6.03982 11.9248 6.04586 12.0193 6.17257 12.146C6.24557 12.219 6.36504 12.2788 6.43805 12.2788C6.51106 12.2788 6.63053 12.219 6.70354 12.146C6.83024 12.0193 6.83628 11.9248 6.83628 10.0656C6.83628 8.26301 6.82726 8.10976 6.71489 8.00807C6.5546 7.86299 6.28646 7.86849 6.14967 8.01962ZM9.68987 8.4904C9.23124 8.6321 8.82451 8.97637 8.58597 9.42478C8.48044 9.6231 8.4592 9.84319 8.44075 10.9297C8.42018 12.1444 8.42542 12.2086 8.5569 12.3401C8.73066 12.5138 8.92241 12.5156 9.09292 12.3451C9.21538 12.2227 9.22566 12.1237 9.22593 11.0675C9.22619 9.78783 9.27265 9.62243 9.70626 9.35807C9.91706 9.22951 10.0503 9.22613 14.9668 9.22613C19.8834 9.22613 20.0166 9.22951 20.2274 9.35807C20.3464 9.43062 20.503 9.58726 20.5756 9.70626C20.7041 9.91706 20.7075 10.0503 20.7076 14.9336C20.7078 19.5735 20.6991 19.9615 20.5917 20.1723C20.5279 20.2975 20.3914 20.4617 20.2883 20.5373C20.1031 20.6732 20.0411 20.675 15.0117 20.6918C10.0256 20.7085 9.91819 20.7062 9.70626 20.5763C9.58726 20.5033 9.43062 20.3464 9.35807 20.2274C9.2323 20.0212 9.22613 19.8883 9.22593 17.3728C9.22566 14.8232 9.22122 14.7301 9.09292 14.6018C8.92307 14.4319 8.7308 14.4329 8.55923 14.6045C8.42648 14.7372 8.42416 14.7967 8.44308 17.5083C8.46086 20.0588 8.47208 20.2948 8.58597 20.5088C8.75847 20.8331 9.07865 21.1586 9.39159 21.3277L9.65708 21.4712H14.9668H20.2765L20.542 21.3277C20.855 21.1586 21.1752 20.8331 21.3477 20.5088C21.4652 20.2878 21.4712 20.0179 21.4712 14.9668C21.4712 9.91573 21.4652 9.6458 21.3477 9.42478C21.1752 9.10049 20.855 8.77507 20.542 8.60588C20.2769 8.46259 20.27 8.46239 15.0664 8.45071C12.2008 8.44427 9.78133 8.46212 9.68987 8.4904Z" fill="#2D5413"/>
</svg>
