<svg width="85" height="27" viewBox="0 0 85 27" fill="none" xmlns="http://www.w3.org/2000/svg">
<path d="M5.6242 10.9128C4.96665 10.9128 4.35607 10.7921 3.79246 10.5508C3.22884 10.3002 2.73781 9.95211 2.31937 9.50659C1.90093 9.06108 1.57642 8.54131 1.34585 7.94729C1.11528 7.34398 1 6.68963 1 5.98423C1 5.27882 1.11528 4.62911 1.34585 4.03509C1.57642 3.43179 1.90093 2.90737 2.31937 2.46186C2.73781 2.01634 3.22884 1.67292 3.79246 1.4316C4.35607 1.181 4.96665 1.05569 5.6242 1.05569C6.29029 1.05569 6.90515 1.181 7.46876 1.4316C8.03238 1.67292 8.51913 2.01634 8.92904 2.46186C9.34748 2.90737 9.67198 3.43179 9.90255 4.03509C10.1417 4.62911 10.2612 5.27882 10.2612 5.98423C10.2612 6.68963 10.1417 7.34398 9.90255 7.94729C9.67198 8.54131 9.34748 9.06108 8.92904 9.50659C8.51913 9.95211 8.03238 10.3002 7.46876 10.5508C6.90515 10.7921 6.29029 10.9128 5.6242 10.9128ZM5.6242 10.4812C6.22198 10.4812 6.77705 10.3698 7.28943 10.147C7.80181 9.92427 8.24587 9.60869 8.62161 9.2003C9.00589 8.79191 9.30051 8.31855 9.50546 7.78022C9.71895 7.2326 9.8257 6.63394 9.8257 5.98423C9.8257 5.33451 9.71895 4.74049 9.50546 4.20216C9.30051 3.65454 9.00589 3.17654 8.62161 2.76815C8.24587 2.35976 7.80181 2.04419 7.28943 1.82143C6.77705 1.59867 6.22198 1.48729 5.6242 1.48729C5.03497 1.48729 4.48416 1.59867 3.97179 1.82143C3.45941 2.04419 3.01108 2.35976 2.6268 2.76815C2.25105 3.17654 1.95644 3.65454 1.74295 4.20216C1.538 4.74049 1.43552 5.33451 1.43552 5.98423C1.43552 6.63394 1.538 7.2326 1.74295 7.78022C1.95644 8.31855 2.25105 8.79191 2.6268 9.2003C3.01108 9.60869 3.45941 9.92427 3.97179 10.147C4.48416 10.3698 5.03497 10.4812 5.6242 10.4812Z" fill="white" stroke="white" stroke-width="0.5"/>
<path d="M12.6907 25.9397V1.1114H13.1262V25.5081H22.3276V25.9397H12.6907Z" fill="white" stroke="white" stroke-width="0.5"/>
<path d="M16.6618 5.63616H21.6063V6.06776H16.6618V5.63616ZM16.7387 10.3698H22.362V10.8014H16.3032V1.05569H22.1827V1.48728H16.7387V10.3698Z" fill="white"/>
<path d="M24.2062 8.29534L24.1934 7.69668L30.137 1.05569H30.675L26.6656 5.55263L26.4094 5.83107L24.2062 8.29534ZM23.8347 10.8014V1.05569H24.2702V10.8014H23.8347ZM30.4188 10.8014L26.2557 5.65008L26.5503 5.32987L30.9568 10.8014H30.4188Z" fill="white"/>
<path d="M35.1021 10.8571C34.4446 10.8571 33.8212 10.7318 33.2319 10.4812C32.6512 10.2213 32.2072 9.89642 31.8998 9.50659L32.1303 9.17245C32.4207 9.52515 32.8306 9.8268 33.36 10.0774C33.898 10.3187 34.4744 10.4394 35.0893 10.4394C35.7127 10.4394 36.2251 10.3466 36.6264 10.1609C37.0278 9.97531 37.3224 9.72935 37.5103 9.42305C37.7067 9.10748 37.8049 8.75942 37.8049 8.37887C37.8049 7.93336 37.7024 7.57602 37.4975 7.30685C37.2925 7.03768 37.0193 6.82421 36.6777 6.66642C36.3446 6.50863 35.9774 6.37869 35.5761 6.27659C35.1832 6.17449 34.7819 6.06776 34.372 5.95638C33.9706 5.83572 33.5991 5.68721 33.2576 5.51086C32.9245 5.32523 32.6555 5.07462 32.4506 4.75905C32.2541 4.43419 32.1559 4.01652 32.1559 3.50603C32.1559 3.0698 32.2627 2.66141 32.4762 2.28086C32.6897 1.90032 33.0227 1.59402 33.4753 1.36198C33.9279 1.12066 34.5086 1 35.2174 1C35.7042 1 36.1824 1.08353 36.6521 1.2506C37.1303 1.40839 37.5359 1.62187 37.8689 1.89103L37.6768 2.26694C37.3181 1.97921 36.9211 1.76573 36.4855 1.62651C36.05 1.48728 35.6316 1.41767 35.2302 1.41767C34.6324 1.41767 34.1329 1.51513 33.7315 1.71004C33.3387 1.89568 33.0483 2.14628 32.8605 2.46185C32.6726 2.77743 32.5787 3.12549 32.5787 3.50603C32.5787 3.96083 32.6811 4.32281 32.8861 4.59198C33.091 4.86115 33.36 5.07462 33.6931 5.23241C34.0347 5.3902 34.4061 5.52014 34.8075 5.62224C35.2089 5.72434 35.6102 5.83572 36.0116 5.95638C36.4129 6.06776 36.7801 6.21626 37.1132 6.40189C37.4548 6.58753 37.7238 6.83813 37.9202 7.1537C38.1251 7.46 38.2276 7.86375 38.2276 8.36495C38.2276 8.80119 38.1166 9.20958 37.8946 9.59012C37.6811 9.97067 37.3395 10.277 36.8698 10.509C36.4087 10.741 35.8194 10.8571 35.1021 10.8571Z" fill="white"/>
<path d="M38.6313 10.8014L42.7816 1.05569H43.2043L47.3545 10.8014H46.8806L42.8968 1.37591H43.089L39.1053 10.8014H38.6313ZM40.066 7.94728L40.2325 7.54353H45.7149L45.8814 7.94728H40.066Z" fill="white"/>
<path d="M48.716 10.8014V1.05569H49.0747L55.6587 10.2445H55.441V1.05569H55.8765V10.8014H55.5178L48.9338 1.61259H49.1516V10.8014H48.716Z" fill="white"/>
<path d="M57.6027 10.8014V1.05569H61.0613C62.0177 1.05569 62.8503 1.26917 63.5591 1.69612C64.2679 2.11379 64.8187 2.68925 65.2115 3.4225C65.6129 4.14646 65.8136 4.98181 65.8136 5.92853C65.8136 6.87525 65.6129 7.71524 65.2115 8.44849C64.8187 9.17245 64.2679 9.74791 63.5591 10.1749C62.8503 10.5925 62.0177 10.8014 61.0613 10.8014H57.6027ZM58.0383 10.3698H61.0357C61.9152 10.3698 62.6795 10.1795 63.3286 9.79896C63.9861 9.41841 64.4899 8.894 64.8401 8.22573C65.1987 7.55745 65.3781 6.79172 65.3781 5.92853C65.3781 5.06534 65.1987 4.29961 64.8401 3.63133C64.4899 2.96306 63.9861 2.43865 63.3286 2.0581C62.6795 1.67756 61.9152 1.48728 61.0357 1.48728H58.0383V10.3698Z" fill="white"/>
<path d="M67.8012 10.8014V1.05569H70.9139C71.6569 1.05569 72.2931 1.18563 72.8225 1.44552C73.3605 1.7054 73.7704 2.07667 74.0522 2.55931C74.3341 3.03267 74.475 3.60813 74.475 4.28569C74.475 4.96324 74.3341 5.54334 74.0522 6.02599C73.7704 6.50863 73.3605 6.8799 72.8225 7.13978C72.2931 7.39967 71.6569 7.52961 70.9139 7.52961H68.0446L68.2368 7.30685V10.8014H67.8012ZM74.1035 10.8014L71.7722 7.26508H72.2717L74.6159 10.8014H74.1035ZM68.2368 7.30685L68.0446 7.09801H70.9396C71.9472 7.09801 72.7158 6.85205 73.2453 6.36013C73.7832 5.8682 74.0522 5.17672 74.0522 4.28569C74.0522 3.39465 73.7832 2.70782 73.2453 2.22517C72.7158 1.73325 71.9472 1.48728 70.9396 1.48728H68.0446L68.2368 1.26453V7.30685Z" fill="white"/>
<path d="M75.0613 10.8014L79.2115 1.05569H79.6343L83.7845 10.8014H83.3106L79.3268 1.37591H79.519L75.5352 10.8014H75.0613ZM76.4959 7.94728L76.6625 7.54353H82.1449L82.3114 7.94728H76.4959Z" fill="white"/>
<path d="M68.2368 7.30685L68.0446 7.52961H70.9139C71.6569 7.52961 72.2931 7.39967 72.8225 7.13978C73.3605 6.8799 73.7704 6.50863 74.0522 6.02599C74.3341 5.54334 74.475 4.96324 74.475 4.28569C74.475 3.60813 74.3341 3.03267 74.0522 2.55931C73.7704 2.07667 73.3605 1.7054 72.8225 1.44552C72.2931 1.18563 71.6569 1.05569 70.9139 1.05569H67.8012V10.8014H68.2368V7.30685ZM68.2368 7.30685L68.0446 7.09801H70.9396C71.9472 7.09801 72.7158 6.85205 73.2453 6.36013C73.7833 5.8682 74.0522 5.17672 74.0522 4.28569C74.0522 3.39465 73.7833 2.70782 73.2453 2.22517C72.7158 1.73325 71.9472 1.48728 70.9396 1.48728H68.0446L68.2368 1.26453V7.30685ZM16.6618 5.63616H21.6063V6.06776H16.6618V5.63616ZM16.7387 10.3698H22.362V10.8014H16.3032V1.05569H22.1827V1.48728H16.7387V10.3698ZM24.2062 8.29534L24.1934 7.69668L30.137 1.05569H30.675L26.6656 5.55263L26.4094 5.83107L24.2062 8.29534ZM23.8347 10.8014V1.05569H24.2702V10.8014H23.8347ZM30.4188 10.8014L26.2557 5.65008L26.5503 5.32987L30.9568 10.8014H30.4188ZM35.1021 10.8571C34.4446 10.8571 33.8212 10.7318 33.2319 10.4812C32.6512 10.2213 32.2072 9.89642 31.8998 9.50659L32.1303 9.17245C32.4207 9.52515 32.8306 9.8268 33.36 10.0774C33.898 10.3187 34.4745 10.4394 35.0893 10.4394C35.7127 10.4394 36.2251 10.3466 36.6264 10.1609C37.0278 9.97531 37.3224 9.72935 37.5103 9.42305C37.7067 9.10748 37.8049 8.75942 37.8049 8.37887C37.8049 7.93336 37.7024 7.57602 37.4975 7.30685C37.2925 7.03768 37.0193 6.82421 36.6777 6.66642C36.3446 6.50863 35.9774 6.37869 35.5761 6.27659C35.1832 6.17449 34.7819 6.06776 34.372 5.95638C33.9706 5.83572 33.5991 5.68721 33.2576 5.51086C32.9245 5.32523 32.6555 5.07462 32.4506 4.75905C32.2541 4.43419 32.1559 4.01652 32.1559 3.50603C32.1559 3.0698 32.2627 2.66141 32.4762 2.28086C32.6897 1.90032 33.0227 1.59402 33.4753 1.36198C33.9279 1.12066 34.5086 1 35.2174 1C35.7042 1 36.1824 1.08353 36.6521 1.2506C37.1303 1.40839 37.5359 1.62187 37.8689 1.89103L37.6768 2.26694C37.3181 1.97921 36.9211 1.76573 36.4855 1.62651C36.05 1.48728 35.6316 1.41767 35.2302 1.41767C34.6324 1.41767 34.1329 1.51513 33.7315 1.71004C33.3387 1.89568 33.0483 2.14628 32.8605 2.46185C32.6726 2.77743 32.5787 3.12549 32.5787 3.50603C32.5787 3.96083 32.6811 4.32281 32.8861 4.59198C33.091 4.86115 33.36 5.07462 33.6931 5.23241C34.0347 5.3902 34.4061 5.52014 34.8075 5.62224C35.2089 5.72434 35.6102 5.83572 36.0116 5.95638C36.4129 6.06776 36.7801 6.21626 37.1132 6.40189C37.4548 6.58753 37.7238 6.83813 37.9202 7.1537C38.1251 7.46 38.2276 7.86375 38.2276 8.36495C38.2276 8.80119 38.1166 9.20958 37.8946 9.59012C37.6811 9.97067 37.3395 10.277 36.8698 10.509C36.4087 10.741 35.8194 10.8571 35.1021 10.8571ZM38.6313 10.8014L42.7816 1.05569H43.2043L47.3545 10.8014H46.8806L42.8968 1.37591H43.089L39.1053 10.8014H38.6313ZM40.066 7.94728L40.2325 7.54353H45.7149L45.8814 7.94728H40.066ZM48.716 10.8014V1.05569H49.0747L55.6587 10.2445H55.441V1.05569H55.8765V10.8014H55.5178L48.9338 1.61259H49.1516V10.8014H48.716ZM57.6027 10.8014V1.05569H61.0613C62.0177 1.05569 62.8503 1.26917 63.5591 1.69612C64.2679 2.11379 64.8187 2.68925 65.2115 3.4225C65.6129 4.14646 65.8136 4.98181 65.8136 5.92853C65.8136 6.87525 65.6129 7.71524 65.2115 8.44849C64.8187 9.17245 64.2679 9.74791 63.5591 10.1749C62.8503 10.5925 62.0177 10.8014 61.0613 10.8014H57.6027ZM58.0383 10.3698H61.0357C61.9152 10.3698 62.6795 10.1795 63.3286 9.79896C63.9861 9.41841 64.4899 8.894 64.8401 8.22573C65.1987 7.55745 65.3781 6.79172 65.3781 5.92853C65.3781 5.06534 65.1987 4.29961 64.8401 3.63133C64.4899 2.96306 63.9861 2.43865 63.3286 2.0581C62.6795 1.67756 61.9152 1.48728 61.0357 1.48728H58.0383V10.3698ZM74.1035 10.8014L71.7722 7.26508H72.2717L74.6159 10.8014H74.1035ZM75.0613 10.8014L79.2115 1.05569H79.6343L83.7845 10.8014H83.3106L79.3268 1.37591H79.519L75.5352 10.8014H75.0613ZM76.4959 7.94728L76.6625 7.54353H82.1449L82.3114 7.94728H76.4959Z" stroke="white" stroke-width="0.5"/>
<path d="M23.72 26L27.8702 16.2543H28.2929L32.4432 26H31.9692L27.9855 16.5745H28.1777L24.1939 26H23.72ZM25.1546 23.1459L25.3211 22.7422H30.8036L30.9701 23.1459H25.1546Z" fill="white"/>
<path d="M40.707 26L36.6848 16.2543H37.1716L41.0528 25.6798H40.8094L44.6907 16.2543H45.1518L41.1297 26H40.707Z" fill="white"/>
<path d="M51.1865 26V16.2543H54.2992C55.0421 16.2543 55.6783 16.3843 56.2078 16.6442C56.7458 16.904 57.1557 17.2753 57.4375 17.758C57.7193 18.2313 57.8602 18.8068 57.8602 19.4843C57.8602 20.1619 57.7193 20.742 57.4375 21.2246C57.1557 21.7073 56.7458 22.0785 56.2078 22.3384C55.6783 22.5983 55.0421 22.7283 54.2992 22.7283H51.4299L51.622 22.5055V26H51.1865ZM57.4887 26L55.1574 22.4637H55.657L58.0011 26H57.4887ZM51.622 22.5055L51.4299 22.2967H54.3248C55.3325 22.2967 56.101 22.0507 56.6305 21.5588C57.1685 21.0668 57.4375 20.3754 57.4375 19.4843C57.4375 18.5933 57.1685 17.9065 56.6305 17.4238C56.101 16.9319 55.3325 16.6859 54.3248 16.6859H51.4299L51.622 16.4632V22.5055Z" fill="white"/>
<path d="M66.8269 26V22.5333L66.9294 22.8536L63.2018 16.2543H63.6758L67.1599 22.408H66.9422L70.4392 16.2543H70.9003L67.1599 22.8536L67.2624 22.5333V26H66.8269Z" fill="white"/>
<path d="M77.2494 23.494L77.2366 22.8953L83.1801 16.2543H83.7181L79.7088 20.7513L79.4526 21.0297L77.2494 23.494ZM76.8779 26V16.2543H77.3134V26H76.8779ZM83.4619 26L79.2989 20.8487L79.5935 20.5285L83.9999 26H83.4619Z" fill="white"/>
<path d="M51.622 22.5055L51.4299 22.7283H54.2992C55.0421 22.7283 55.6783 22.5983 56.2078 22.3384C56.7458 22.0785 57.1557 21.7073 57.4375 21.2246C57.7193 20.742 57.8602 20.1619 57.8602 19.4843C57.8602 18.8068 57.7193 18.2313 57.4375 17.758C57.1557 17.2753 56.7458 16.904 56.2078 16.6442C55.6783 16.3843 55.0421 16.2543 54.2992 16.2543H51.1865V26H51.622V22.5055ZM51.622 22.5055L51.4299 22.2967H54.3248C55.3325 22.2967 56.101 22.0507 56.6305 21.5588C57.1685 21.0668 57.4375 20.3754 57.4375 19.4843C57.4375 18.5933 57.1685 17.9065 56.6305 17.4238C56.101 16.9319 55.3325 16.6859 54.3248 16.6859H51.4299L51.622 16.4632V22.5055ZM23.72 26L27.8702 16.2543H28.2929L32.4432 26H31.9692L27.9855 16.5745H28.1777L24.1939 26H23.72ZM25.1546 23.1459L25.3211 22.7422H30.8036L30.9701 23.1459H25.1546ZM40.707 26L36.6848 16.2543H37.1716L41.0528 25.6798H40.8094L44.6907 16.2543H45.1518L41.1297 26H40.707ZM57.4887 26L55.1574 22.4637H55.657L58.0011 26H57.4887ZM66.8269 26V22.5333L66.9294 22.8536L63.2018 16.2543H63.6758L67.1599 22.408H66.9422L70.4392 16.2543H70.9003L67.1599 22.8536L67.2624 22.5333V26H66.8269ZM77.2494 23.494L77.2366 22.8953L83.1801 16.2543H83.7181L79.7088 20.7513L79.4526 21.0297L77.2494 23.494ZM76.8779 26V16.2543H77.3134V26H76.8779ZM83.4619 26L79.2989 20.8487L79.5935 20.5285L83.9999 26H83.4619Z" stroke="white" stroke-width="0.5"/>
</svg>
