<svg width="31" height="30" viewBox="0 0 31 30" fill="none" xmlns="http://www.w3.org/2000/svg">
<path fill-rule="evenodd" clip-rule="evenodd" d="M3.91984 0.0707352C2.47998 0.366561 1.31744 1.27293 0.683894 2.59368C0.212081 3.57728 0.250768 2.46915 0.250768 15.0053C0.250768 27.5415 0.212081 26.4334 0.683894 27.417C1.14532 28.3789 1.82271 29.0645 2.77509 29.5334C3.80888 30.0424 2.64693 29.9991 15.2499 29.9991C27.8529 29.9991 26.691 30.0424 27.7248 29.5334C28.6771 29.0645 29.3545 28.3789 29.816 27.417C30.2878 26.4334 30.2491 27.5415 30.2491 15.0053C30.2491 2.40688 30.2925 3.56842 29.7833 2.53499C29.314 1.58273 28.6277 0.905221 27.6661 0.444845C26.6771 -0.0286168 27.8323 0.0130488 15.3967 0.00213362C6.34037 -0.0058474 4.23133 0.00676965 3.91984 0.0707352ZM26.7328 1.45509C27.728 1.81911 28.4562 2.55471 28.8207 3.56419L28.9576 3.94341V14.9466C28.9576 23.7482 28.9424 26.0069 28.8818 26.2348C28.6017 27.2878 27.7837 28.1712 26.7328 28.5556L26.3158 28.708H15.3086C6.50392 28.708 4.24442 28.6929 4.01641 28.6323C2.963 28.3523 2.07931 27.5346 1.6948 26.484L1.54228 26.0673V15.0053V3.94341L1.67918 3.56419C1.85952 3.06461 2.05325 2.74226 2.40301 2.3597C2.87923 1.83888 3.57806 1.44693 4.22405 1.33837C4.40093 1.30867 9.2569 1.28954 15.426 1.2943L26.3158 1.30263L26.7328 1.45509ZM24.4814 4.03378C23.9852 4.28682 23.7369 4.7303 23.7731 5.29883C23.8009 5.73426 23.9916 6.06113 24.3601 6.30491C24.5736 6.44622 24.6619 6.46682 25.0537 6.46682C25.4454 6.46682 25.5337 6.44622 25.7472 6.30491C25.8818 6.21588 26.0648 6.03285 26.1539 5.89817C26.2952 5.68456 26.3158 5.59612 26.3158 5.20482C26.3158 4.81345 26.2952 4.72519 26.1539 4.51176C25.9041 4.13448 25.5985 3.96189 25.127 3.93185C24.8032 3.91119 24.6852 3.92985 24.4814 4.03378ZM14.1742 5.26708C11.8902 5.53245 9.83772 6.54751 8.23108 8.20633C7.13559 9.33734 6.44856 10.458 5.97352 11.8889C5.03758 14.7079 5.37197 17.62 6.92266 20.155C7.64949 21.3432 8.91517 22.6087 10.0984 23.3302C13.6369 25.4879 18.0385 25.2479 21.2672 22.7211C21.8027 22.302 22.6735 21.4228 23.0679 20.9031C24.5454 18.9556 25.2657 16.365 24.9925 13.9808C24.733 11.7162 23.8021 9.75852 22.2189 8.14752C20.9117 6.81739 19.3888 5.94711 17.5972 5.50651C16.4482 5.22389 15.2607 5.14085 14.1742 5.26708ZM16.6882 6.6431C18.3968 6.93658 19.9848 7.76573 21.2385 9.01892C23.4637 11.2433 24.2616 14.3813 23.3801 17.4407C23.181 18.1315 22.6887 19.1509 22.2259 19.8309C21.7518 20.5273 20.7739 21.5048 20.0772 21.9787C18.6033 22.9814 17.0098 23.4751 15.2499 23.4747C12.945 23.4741 10.9029 22.6271 9.26177 20.9911C7.6327 19.3671 6.7759 17.304 6.7759 15.0053C6.7759 12.7073 7.63029 10.6494 9.26136 9.01892C10.7106 7.57019 12.3699 6.79762 14.6042 6.53125C14.9731 6.48724 16.148 6.55032 16.6882 6.6431ZM14.5025 9.14069C13.2348 9.30553 12.1113 9.84073 11.1768 10.7249C9.96817 11.8686 9.32071 13.3618 9.32071 15.0053C9.32071 16.6489 9.96817 18.142 11.1768 19.2857C13.4589 21.4451 16.9543 21.4547 19.2391 19.3079C20.4658 18.1553 21.1204 16.658 21.1204 15.0053C21.1204 13.3526 20.4658 11.8554 19.2391 10.7027C17.9468 9.48857 16.2163 8.91787 14.5025 9.14069ZM16.3341 10.5449C17.9423 10.956 19.2017 12.1899 19.6624 13.8057C19.8512 14.4676 19.8512 15.5431 19.6624 16.205C19.2027 17.8175 17.939 19.0555 16.3341 19.4658C15.7086 19.6257 14.7326 19.6257 14.1071 19.4658C12.7881 19.1286 11.7148 18.2568 11.1083 17.0299C10.7363 16.2775 10.6463 15.8829 10.6463 15.0053C10.6463 14.1277 10.7363 13.7331 11.1083 12.9807C11.7095 11.7647 12.7807 10.8888 14.0842 10.5475C14.6908 10.3887 15.7186 10.3875 16.3341 10.5449Z" fill="white"/>
</svg>
