<svg width="33" height="33" viewBox="0 0 33 33" fill="none" xmlns="http://www.w3.org/2000/svg">
<path fill-rule="evenodd" clip-rule="evenodd" d="M10.1443 0.0442258C10.7988 0.259003 11.3064 0.774866 11.4922 1.41407C11.6505 1.95878 11.5759 2.45834 11.2572 2.98775L11.0068 3.40361L15.8672 6.79788C18.5404 8.66469 20.8231 10.2544 20.9397 10.3306L21.152 10.4691L21.5954 10.1079C21.8393 9.9092 22.182 9.68333 22.3569 9.60597C23.0817 9.28538 24.17 9.30971 24.8915 9.66275C25.4441 9.93315 26.6711 11.1165 26.6704 11.3784C26.6699 11.5285 25.9977 12.2421 23.5719 14.6675L20.4739 17.7651L24.3993 21.7066C26.5584 23.8744 28.5502 25.9063 28.8256 26.2219C30.3105 27.9232 31.9541 30.3359 32.7971 32.0518C33.0137 32.4928 33.0364 32.5909 32.9605 32.7574C32.7986 33.1127 32.5643 33.0872 31.6779 32.618C30.0802 31.7724 28.3277 30.5882 26.7633 29.2975C26.1913 28.8256 24.133 26.8433 21.7716 24.4902L17.7532 20.4859L14.6566 23.5835C12.2318 26.009 11.5184 26.6811 11.3684 26.6816C11.0971 26.6822 9.91844 25.4507 9.65257 24.8887C9.2991 24.1414 9.27454 23.0947 9.59358 22.3734C9.67231 22.1954 9.89923 21.8502 10.0979 21.6062L10.4591 21.1628L10.3206 20.9511C10.2444 20.8345 8.65496 18.5515 6.78852 15.8778L3.39495 11.0163L2.97866 11.267C2.74378 11.4084 2.39903 11.5402 2.18748 11.5693C1.42009 11.6748 0.552326 11.2171 0.177658 10.5091C-0.0581436 10.0635 -0.0594444 9.17275 0.175133 8.7383C0.384769 8.34998 8.40371 0.345771 8.76322 0.165961C9.05931 0.0178282 9.85126 -0.0519533 10.1443 0.0442258ZM9.20415 1.00242C9.06337 1.06356 7.24841 2.82454 4.96553 5.11509C1.48436 8.60799 0.966621 9.15698 0.922092 9.40283C0.779938 10.1879 1.45161 10.8095 2.22092 10.6047C2.48288 10.5349 2.8828 10.172 4.79101 8.27209C7.15737 5.91589 7.26594 5.83288 7.57534 6.14223C7.8777 6.44469 7.77878 6.5815 5.86635 8.50516L4.03717 10.3451L7.51421 15.3186C9.42656 18.054 11.0228 20.3437 11.0615 20.4068C11.1166 20.4969 12.1371 19.517 15.8022 15.8544C18.3709 13.2875 20.4716 11.1699 20.4704 11.1487C20.4692 11.1275 19.6734 10.5593 18.7019 9.88602C17.7304 9.21269 15.4504 7.62416 13.6353 6.35601L10.3351 4.05023L10.0116 4.34749C9.64943 4.68041 9.45081 4.71683 9.22572 4.49172C8.94937 4.21535 9.02932 4.03371 9.73168 3.34232C10.6892 2.39973 10.8726 1.87117 10.4353 1.31514C10.134 0.93218 9.64943 0.809068 9.20415 1.00242ZM10.813 5.7872C11.1899 6.0602 11.2721 6.26771 11.1048 6.52312C10.9434 6.76942 10.6449 6.76705 10.2763 6.51661C10.0423 6.35754 9.99081 6.27643 9.99081 6.06686C9.99081 5.59346 10.3683 5.46507 10.813 5.7872ZM14.5113 8.41311C15.702 9.26525 16.7092 10.0175 16.7494 10.0846C16.9501 10.419 16.5136 10.8621 16.1646 10.6783C15.676 10.4211 11.8317 7.61116 11.7905 7.48116C11.7107 7.22958 11.9965 6.86368 12.2729 6.86368C12.3133 6.86368 13.3206 7.56096 14.5113 8.41311ZM22.6031 10.5C22.4623 10.5705 19.706 13.2674 16.478 16.4931C10.0349 22.9316 10.2873 22.6425 10.2873 23.5822C10.2873 24.2072 10.4588 24.6022 10.9684 25.1507L11.3593 25.5716L18.4599 18.4704L25.5605 11.3694L25.1514 10.9894C24.9265 10.7803 24.6372 10.5548 24.5085 10.4883C24.004 10.2274 23.1369 10.2327 22.6031 10.5ZM22.0595 23.4906C25.7943 27.231 26.8212 28.1995 28.1557 29.2394C28.8339 29.768 30.3192 30.7803 31.1429 31.2753L31.4461 31.4576L31.2642 31.1544C30.4772 29.8422 29.4803 28.4386 28.4673 27.2166C28.1359 26.8168 26.0562 24.6731 23.8457 22.4528L19.8267 18.4159L19.1162 19.1235L18.4056 19.8311L22.0595 23.4906Z" fill="#2D5413"/>
</svg>
