<svg width="31" height="30" viewBox="0 0 31 30" fill="none" xmlns="http://www.w3.org/2000/svg">
<path fill-rule="evenodd" clip-rule="evenodd" d="M14.3175 0.0295019C7.88185 0.436396 2.41178 4.89894 0.748796 11.099C0.140261 13.3676 0.0863659 15.9367 0.599054 18.2331C1.45549 22.0691 3.79329 25.429 7.12732 27.6153C8.86489 28.7548 11.1584 29.6038 13.3483 29.9183C14.2028 30.0411 16.4942 30.0219 17.3811 29.8846C19.2947 29.5883 20.9833 29.017 22.5671 28.1301C23.2894 27.7257 23.4584 27.5324 23.491 27.0736C23.5322 26.4937 23.1108 26.0386 22.5327 26.0386C22.3324 26.0386 22.0435 26.1555 21.25 26.5579C18.0156 28.1979 14.5684 28.4779 11.1941 27.3749C6.57087 25.8636 3.25359 21.9843 2.39665 17.0869C2.24359 16.212 2.24309 13.9131 2.39577 13.0327C2.73271 11.0902 3.39039 9.43834 4.46941 7.82411C6.44538 4.86813 9.45498 2.92417 13.0868 2.25797C14.0944 2.07308 16.3782 2.05867 17.3186 2.23121C19.3138 2.59737 20.9425 3.2486 22.5467 4.32163C25.6961 6.42827 27.7666 9.87236 28.1963 13.7189C28.3832 15.3913 28.1531 17.4956 27.6073 19.1062C27.2516 20.1558 26.9678 20.5246 26.2622 20.8549C25.9714 20.9909 25.8297 21.0166 25.384 21.0142C24.9375 21.0118 24.7964 20.9842 24.5008 20.8418C24.087 20.6424 23.6235 20.1726 23.4282 19.7545L23.2895 19.4577L23.2582 13.5831C23.2273 7.77146 23.2256 7.70659 23.098 7.53617C22.8531 7.20887 22.6533 7.10676 22.2579 7.10676C21.8626 7.10676 21.6629 7.20881 21.4177 7.53598C21.3019 7.6905 21.2868 7.81294 21.2689 8.73714L21.249 9.76626L20.7687 9.30846C19.6565 8.24841 18.4138 7.59181 16.8809 7.25428C16.0266 7.06621 14.5683 7.05099 13.7547 7.22178C11.2575 7.74582 9.2586 9.24122 8.14488 11.4187C7.4852 12.7082 7.2825 13.5828 7.28638 15.1224C7.28882 16.094 7.30764 16.2878 7.4575 16.8861C7.84815 18.4458 8.55171 19.6832 9.67156 20.7802C10.7611 21.8474 12.1198 22.5637 13.6922 22.8996C14.434 23.0581 16.0743 23.0558 16.8184 22.8951C18.3973 22.5542 19.6712 21.8726 20.836 20.7455C21.1715 20.4209 21.4544 20.1667 21.4645 20.1807C21.4747 20.1947 21.5366 20.3325 21.6021 20.4869C21.9828 21.3842 22.7293 22.1781 23.5875 22.5981C24.7857 23.1845 26.04 23.184 27.2597 22.5968C27.683 22.393 27.894 22.238 28.2968 21.835C28.8897 21.2418 29.1635 20.7806 29.4675 19.8631C30.0587 18.079 30.3086 16.3505 30.2385 14.5298C30.0914 10.7029 28.6601 7.30893 26.0521 4.60227C22.9959 1.43052 18.6911 -0.246959 14.3175 0.0295019ZM16.7244 9.2595C17.8668 9.56534 18.634 10.0092 19.4756 10.8511C20.3276 11.7034 20.7658 12.4623 21.0791 13.6282C21.2633 14.3136 21.2809 15.7256 21.1136 16.392C20.822 17.5531 20.3307 18.4157 19.4748 19.2697C18.3591 20.3827 17.1412 20.9345 15.5992 21.0255C13.7964 21.1318 12.0956 20.4403 10.8339 19.088C10.1734 18.38 9.71039 17.5239 9.42979 16.4918C9.24628 15.8166 9.23046 14.4083 9.39884 13.7274C9.67406 12.6142 10.1953 11.6856 11.0015 10.8725C11.9476 9.91809 13.0672 9.33803 14.3512 9.13686C14.9467 9.04354 16.1502 9.10567 16.7244 9.2595Z" fill="white"/>
</svg>
