<svg width="31" height="30" viewBox="0 0 31 30" fill="none" xmlns="http://www.w3.org/2000/svg">
<path fill-rule="evenodd" clip-rule="evenodd" d="M2.79267 0.0925132C1.62561 0.346178 0.593768 1.3886 0.344298 2.56602C0.218567 3.15921 0.218567 26.8364 0.344298 27.4296C0.596754 28.6212 1.6286 29.6532 2.82002 29.9057C3.41313 30.0314 27.0869 30.0314 27.68 29.9057C28.8714 29.6532 29.9032 28.6212 30.1557 27.4296C30.2814 26.8364 30.2814 3.15921 30.1557 2.56602C29.9032 1.37442 28.8714 0.342429 27.68 0.0899362C27.1064 -0.0316541 3.35258 -0.0291356 2.79267 0.0925132ZM27.7528 1.48588C28.2093 1.69896 28.5524 2.0403 28.7584 2.48637L28.924 2.84464V14.9978V27.151L28.7584 27.5093C28.5524 27.9553 28.2093 28.2967 27.7528 28.5097L27.4014 28.6738L23.6096 28.6908L19.8178 28.7079V24.7813V20.8548H22.1631C24.7717 20.8548 24.7875 20.8526 24.9465 20.4721C25.0692 20.1782 25.0692 15.0301 24.9465 14.7362C24.7875 14.3557 24.7717 14.3535 22.1631 14.3535H19.8178V13.0357V11.7179H22.2057C24.8222 11.7179 24.7557 11.7265 24.9422 11.3659C25.0768 11.1056 25.0724 5.88076 24.9373 5.59612C24.7504 5.20212 24.795 5.20669 21.3529 5.2317C17.9045 5.25676 17.8975 5.25747 16.85 5.70628C15.44 6.31037 14.197 7.59433 13.6943 8.96568C13.3645 9.86566 13.3593 9.91234 13.3332 12.1992L13.3086 14.3499L10.878 14.3663L8.44721 14.3828L8.27638 14.5741L8.10556 14.7654V17.6042V20.4429L8.27638 20.6342L8.44721 20.8255L10.8677 20.8548L13.2882 20.884V24.7789V28.6738H8.1934H3.0986L2.74038 28.5082C2.29438 28.3021 1.95309 27.959 1.74004 27.5024L1.57601 27.151V14.9978V2.84464L1.7401 2.49322C2.01867 1.89663 2.54022 1.47452 3.14867 1.35299C3.28219 1.32634 8.79365 1.30842 15.3964 1.31316L27.4014 1.32183L27.7528 1.48588ZM23.7275 8.48195L23.7429 10.4294H21.4271C18.9423 10.4294 18.8261 10.4418 18.6249 10.7291C18.5408 10.8492 18.5294 11.125 18.5294 13.0479V15.2302L18.7002 15.4215L18.8711 15.6128L21.3062 15.6293L23.7413 15.6458V17.6042V19.5625L21.3124 19.579L18.8834 19.5955L18.721 19.7579L18.5587 19.9203L18.5294 24.297L18.5001 28.6738L16.553 28.6892L14.6058 28.7047V24.4225C14.6058 20.5805 14.596 20.1196 14.5101 19.9386C14.3332 19.5658 14.3367 19.5662 11.7393 19.5662H9.3939V17.6042V15.6421H11.7393C14.2637 15.6421 14.3298 15.6347 14.5016 15.334C14.5578 15.2357 14.5847 14.578 14.6092 12.7136C14.6406 10.3171 14.6468 10.2091 14.777 9.81441C15.3684 8.02089 16.7972 6.8013 18.578 6.57013C18.7928 6.54225 20.0359 6.5228 21.3403 6.52696L23.7121 6.53452L23.7275 8.48195Z" fill="white"/>
</svg>
