<svg width="27" height="30" viewBox="0 0 27 30" fill="none" xmlns="http://www.w3.org/2000/svg">
<path fill-rule="evenodd" clip-rule="evenodd" d="M6.42888 0.439585C6.32063 0.67314 6.17601 1.02986 6.10762 1.23237C5.82768 2.061 5.79896 2.31125 5.76782 4.1948L5.73792 6.0028L5.39441 6.6545C4.75507 7.86749 4.49273 8.92159 4.49614 10.2638C4.50303 12.9989 5.9929 15.4959 8.66409 17.2491C9.24151 17.628 10.2667 18.1393 10.8714 18.3499C11.0818 18.4232 11.264 18.4908 11.2764 18.5002C11.2887 18.5095 11.178 18.6433 11.0303 18.7974C10.6599 19.1841 10.5627 19.3153 10.318 19.7582C9.96396 20.399 9.63529 21.5407 9.63529 22.1295V22.3281L8.82596 22.3268C7.52174 22.3247 7.43245 22.2527 6.72294 20.6325C6.45154 20.0127 6.15689 19.4014 6.06818 19.274C5.80084 18.8902 5.22107 18.3998 4.79362 18.196C4.23245 17.9284 3.76216 17.8642 2.53092 17.887C1.54307 17.9053 1.46419 17.9153 1.15235 18.0608C0.703956 18.2699 0.371513 18.5829 0.175273 18.9805C-0.0555176 19.4481 -0.0586961 20.0996 0.167563 20.5798C0.504184 21.2945 1.04099 21.6306 1.93107 21.6841C2.51756 21.7195 2.74128 21.8027 2.86424 22.0313C2.89774 22.0936 3.08262 22.5679 3.27515 23.0855C3.46762 23.603 3.72084 24.2077 3.83785 24.4292C4.28807 25.2816 5.00305 25.9558 5.89767 26.3712C6.64313 26.7174 6.98387 26.7796 8.35508 26.8197L9.57643 26.8555V28.4277V30H15.3742H21.1719L21.1704 26.208C21.1695 24.1223 21.1438 22.1592 21.1131 21.8454C21.0059 20.7493 20.5247 19.6629 19.8094 18.9021C19.6109 18.691 19.4588 18.5104 19.4714 18.5007C19.4841 18.491 19.6665 18.4232 19.877 18.3499C21.8394 17.6664 23.7789 16.1966 24.8817 14.5572C25.835 13.1401 26.2495 11.8304 26.25 10.2345C26.2504 8.86356 26.0229 7.9551 25.3481 6.63278L25.0043 5.95929L24.9774 4.17307C24.9452 2.04642 24.8718 1.63079 24.316 0.432089L24.1156 0L23.1294 0.0310977C22.0151 0.0661779 21.6379 0.14278 20.8968 0.48427C20.2783 0.769244 19.9344 1.00122 19.4853 1.43606C19.1749 1.7365 19.0989 1.78247 18.9555 1.75647C18.8634 1.73972 18.4777 1.65931 18.0984 1.57767C17.0628 1.35489 16.1819 1.28303 14.9355 1.31981C13.8439 1.35196 13.2574 1.42733 12.2457 1.6654L11.707 1.79219L11.3333 1.45211C10.2098 0.429453 9.08047 0.0149925 7.41767 0.0149925H6.62577L6.42888 0.439585ZM8.92897 1.47571C9.52969 1.6774 10.0252 2.00437 10.7126 2.65279L11.3485 3.25261L11.8604 3.09847C13.2271 2.68688 14.1581 2.56911 15.7273 2.60928C17.0554 2.64325 17.7577 2.75136 18.8852 3.09554L19.4122 3.25636L19.8359 2.84664C21.0138 1.70751 21.6077 1.39635 22.7458 1.32186L23.2897 1.28625L23.3859 1.51448C23.64 2.11734 23.7013 2.71417 23.7021 4.59181L23.7029 6.38675L23.9174 6.70013C24.6315 7.74304 25.0634 9.31726 24.9767 10.5609C24.7385 13.9773 21.9163 16.72 17.6524 17.6789L16.9287 17.8415L18.0173 18.9282C19.1962 20.1049 19.4252 20.4146 19.687 21.186L19.8459 21.6546L19.8644 25.1831L19.8829 28.7116H15.3771H10.8714V27.6263C10.8714 26.4443 10.8335 26.2573 10.5298 25.9392C10.2023 25.5962 10.1364 25.5827 8.60524 25.5455C7.29271 25.5136 7.16298 25.5007 6.77456 25.3633C6.0457 25.1055 5.38947 24.5807 5.02871 23.967C4.94378 23.8225 4.68385 23.2036 4.45106 22.5916C4.0046 21.4177 3.83061 21.1014 3.48852 20.8417C3.15066 20.5854 2.87325 20.4966 2.27382 20.4531C1.66656 20.409 1.46166 20.3244 1.34506 20.0698C1.19332 19.7385 1.30445 19.4211 1.63095 19.2531C1.86144 19.1345 3.60788 19.1289 3.99719 19.2454C4.36265 19.3549 4.77114 19.6464 4.97791 19.9455C5.0728 20.0827 5.33985 20.6419 5.57128 21.1883C6.07319 22.3728 6.19138 22.583 6.52994 22.8936C7.1598 23.4712 7.63669 23.6165 8.90313 23.6165C9.84124 23.6165 10.0708 23.5745 10.3802 23.3461C10.6955 23.1133 10.817 22.8478 10.9072 22.1942C11.0109 21.4431 11.175 20.891 11.4507 20.3661C11.6297 20.0252 11.8483 19.7779 12.7478 18.8982L13.8297 17.8403L13.0127 17.6455C11.9361 17.3888 11.2642 17.1658 10.5476 16.8273C6.86609 15.0881 5.06261 11.7545 6.02174 8.46134C6.20097 7.84612 6.4327 7.33737 6.77009 6.81837L7.03585 6.40965L7.05957 4.42753C7.08111 2.6289 7.09494 2.40349 7.20884 1.99271C7.41332 1.25504 7.38006 1.28315 8.0081 1.3177C8.33318 1.33556 8.69788 1.39817 8.92897 1.47571Z" fill="white"/>
</svg>
