<svg width="31" height="30" viewBox="0 0 31 30" fill="none" xmlns="http://www.w3.org/2000/svg">
<path fill-rule="evenodd" clip-rule="evenodd" d="M2.46008 0.0537798C1.42017 0.228664 0.482218 1.18812 0.307436 2.25583C0.230855 2.72334 0.230855 27.2692 0.307436 27.7367C0.486788 28.8324 1.4173 29.7632 2.51269 29.9426C2.98009 30.0191 27.5199 30.0191 27.9873 29.9426C29.0827 29.7632 30.0132 28.8324 30.1926 27.7367C30.2691 27.2692 30.2691 2.72334 30.1926 2.25583C30.0132 1.16017 29.0827 0.229426 27.9873 0.0500289C27.5655 -0.019069 2.87169 -0.0154354 2.46008 0.0537798ZM28.1111 1.49657C28.3853 1.64462 28.6107 1.87418 28.7636 2.1613C28.8692 2.35962 28.8728 2.78564 28.8728 14.9963C28.8728 27.2069 28.8692 27.633 28.7636 27.8313C28.6107 28.1184 28.3853 28.348 28.1111 28.496L27.8767 28.6225H15.25C3.04237 28.6225 2.61646 28.6188 2.41818 28.5132C2.13114 28.3603 1.90163 28.1349 1.75362 27.8606L1.62718 27.6262V14.9963C1.62718 2.78564 1.63081 2.35962 1.7364 2.1613C1.9502 1.75984 2.27773 1.49446 2.68185 1.39524C2.77853 1.37151 8.48693 1.35615 15.3672 1.36113L27.8767 1.3701L28.1111 1.49657ZM10.5919 9.68512C10.2428 9.84981 10.0836 10.0119 9.92298 10.3663C9.70279 10.8522 9.79091 11.3775 10.1638 11.8012C10.7709 12.491 11.9087 12.3569 12.3324 11.5455C12.6373 10.9616 12.5194 10.303 12.0358 9.88896C11.6092 9.52372 11.0896 9.45034 10.5919 9.68512ZM9.80087 16.6959V20.4468H11.1485H12.4961V16.6959V12.945H11.1485H9.80087V16.6959ZM13.9024 16.6959V20.4468H15.2463H16.5901L16.6085 18.205C16.626 16.0781 16.6332 15.9498 16.749 15.6996C16.9184 15.3335 17.2318 15.0724 17.5612 15.023C17.8814 14.975 18.0509 15.0122 18.2591 15.176C18.6194 15.4595 18.6174 15.4439 18.6368 18.0585L18.6545 20.4468H20.0284H21.4022V18.4017C21.4022 16.1955 21.3485 15.3917 21.1597 14.7752C20.9131 13.9703 20.4058 13.3626 19.7703 13.111C19.5026 13.0051 19.3274 12.9807 18.8535 12.9833C17.7713 12.9894 17.1003 13.2951 16.6743 13.9763C16.6174 14.0674 16.6039 13.9829 16.6011 13.5165L16.5976 12.945H15.25H13.9024V16.6959Z" fill="white"/>
</svg>
