<svg width="200" height="200" viewBox="0 0 200 200" fill="none" xmlns="http://www.w3.org/2000/svg">
<path fill-rule="evenodd" clip-rule="evenodd" d="M85.65 0.788288C85.4203 1.22162 84.1676 6.86306 82.8662 13.3243L80.5 25.0721L75.4288 26.7414C72.6401 27.6595 68.2189 29.4824 65.605 30.7928L60.8523 33.1752L50.6748 26.4977C45.0775 22.8248 40.1509 19.8198 39.727 19.8198C38.7257 19.8198 19.8198 38.7329 19.8198 39.7347C19.8198 40.1541 22.8248 45.0775 26.4977 50.6748L33.1752 60.8523L30.7928 65.605C29.4824 68.2189 27.6604 72.6365 26.7437 75.4221L25.077 80.486L13.3266 82.8676C6.86396 84.1775 1.22162 85.4333 0.788288 85.6586C0.0635135 86.0347 0 87.1874 0 100C0 112.813 0.0635135 113.965 0.788288 114.341C1.22162 114.567 6.86396 115.823 13.3266 117.132L25.077 119.514L26.7437 124.578C27.6604 127.364 29.4824 131.781 30.7928 134.395L33.1752 139.148L26.4977 149.325C22.8248 154.923 19.8198 159.849 19.8198 160.273C19.8198 161.27 38.7311 180.18 39.7279 180.18C40.1441 180.18 45.0649 177.174 50.6635 173.5L60.8428 166.82L65.4437 169.123C67.9743 170.391 72.3986 172.22 75.2752 173.19L80.5054 174.954L82.8689 186.688C84.1685 193.143 85.4203 198.778 85.65 199.212C86.0342 199.936 87.1905 200 100 200C112.813 200 113.965 199.936 114.341 199.212C114.567 198.778 115.822 193.138 117.132 186.678L119.512 174.933L124.274 173.39C126.893 172.541 131.315 170.719 134.1 169.341L139.165 166.836L149.334 173.508C154.927 177.178 159.849 180.18 160.273 180.18C161.27 180.18 180.18 161.269 180.18 160.272C180.18 159.856 177.174 154.935 173.5 149.336L166.82 139.157L169.205 134.4C170.517 131.783 172.337 127.371 173.251 124.595L174.912 119.548L186.668 117.155C193.133 115.839 198.778 114.575 199.212 114.347C199.936 113.966 200 112.81 200 100C200 87.1896 199.936 86.0342 199.212 85.6532C198.778 85.4248 193.133 84.1613 186.668 82.845L174.912 80.4523L173.251 75.405C172.337 72.6293 170.518 68.2189 169.207 65.605L166.825 60.8523L173.502 50.6748C177.175 45.0775 180.18 40.1509 180.18 39.727C180.18 38.7297 161.269 19.8198 160.272 19.8198C159.856 19.8198 154.936 22.8248 149.34 26.4977L139.164 33.1761L134.109 30.6572C131.329 29.2716 126.904 27.4459 124.276 26.6005L119.498 25.0622L117.133 13.3194C115.832 6.86081 114.58 1.22162 114.35 0.788288C113.966 0.0635135 112.809 0 100 0C87.1905 0 86.0342 0.0635135 85.65 0.788288ZM114.332 14.9788C115.65 21.4815 116.968 27.0266 117.26 27.3009C117.553 27.5757 120.156 28.5523 123.045 29.4716C125.933 30.3905 130.696 32.3559 133.629 33.8383C136.562 35.3203 139.266 36.4518 139.638 36.3523C140.011 36.2532 144.645 33.3032 149.937 29.7973C155.229 26.2919 159.788 23.4234 160.068 23.4234C160.775 23.4234 176.577 39.2716 176.577 39.9806C176.577 40.2973 173.709 44.8504 170.205 50.0986C166.7 55.3473 163.75 59.9559 163.65 60.3401C163.549 60.7243 164.68 63.4383 166.162 66.3712C167.644 69.3041 169.609 74.0671 170.528 76.9554C171.448 79.8441 172.424 82.4468 172.699 82.7396C172.973 83.0324 178.518 84.35 185.021 85.6676L196.845 88.0631V100V111.937L185.021 114.332C178.518 115.65 172.973 116.968 172.699 117.26C172.424 117.553 171.448 120.156 170.528 123.045C169.609 125.933 167.644 130.696 166.162 133.629C164.68 136.562 163.549 139.276 163.65 139.66C163.75 140.044 166.7 144.653 170.205 149.901C173.709 155.15 176.577 159.703 176.577 160.019C176.577 160.728 160.775 176.577 160.068 176.577C159.788 176.577 155.229 173.708 149.937 170.203C144.645 166.697 140.011 163.747 139.638 163.648C139.266 163.548 136.562 164.68 133.629 166.162C130.696 167.644 125.933 169.609 123.045 170.528C120.156 171.448 117.553 172.424 117.26 172.699C116.968 172.973 115.65 178.518 114.332 185.021L111.937 196.845H100H88.0631L85.6676 185.021C84.35 178.518 83.0239 172.944 82.7207 172.632C82.4176 172.321 80.6685 171.651 78.8338 171.142C74.5968 169.968 68.8171 167.579 64.555 165.24C62.7275 164.237 60.8743 163.509 60.4365 163.624C59.9991 163.738 55.3473 166.7 50.0986 170.205C44.8504 173.709 40.3014 176.577 39.9901 176.577C39.2441 176.577 23.4234 160.765 23.4234 160.019C23.4234 159.703 26.291 155.15 29.7955 149.901C33.3005 144.653 36.25 140.044 36.3504 139.66C36.4514 139.276 35.3203 136.562 33.8383 133.629C32.3559 130.696 30.3905 125.933 29.4716 123.045C28.5523 120.156 27.5757 117.55 27.3009 117.255C26.8568 116.775 5.61937 112.162 3.85811 112.162C3.23604 112.162 3.15315 110.735 3.15315 100C3.15315 89.2653 3.23604 87.8378 3.85811 87.8378C5.61937 87.8378 26.8568 83.2248 27.3009 82.7455C27.5757 82.4496 28.5523 79.8441 29.4716 76.9554C30.3905 74.0671 32.3559 69.3041 33.8383 66.3712C35.3203 63.4383 36.4514 60.7243 36.3504 60.3401C36.25 59.9559 33.3005 55.3473 29.7955 50.0986C26.291 44.8504 23.4234 40.3014 23.4234 39.9901C23.4234 39.2441 39.2351 23.4234 39.9806 23.4234C40.2973 23.4234 44.8504 26.291 50.0986 29.7955C55.3473 33.3005 59.9991 36.2617 60.4365 36.3761C60.8743 36.4905 62.7275 35.7631 64.555 34.7604C68.8171 32.4212 74.5968 30.032 78.8338 28.8577C80.6685 28.3491 82.4176 27.6788 82.7207 27.3676C83.0239 27.0563 84.35 21.4815 85.6676 14.9788L88.0631 3.15541H100H111.937L114.332 14.9788ZM91.795 48.8968C75.1423 51.4896 60.3838 62.6153 53.1667 78.0158C39.9937 106.127 54.2405 139.225 83.7721 149.119C94.1009 152.58 105.901 152.579 116.235 149.117C123.951 146.532 130.648 142.366 136.507 136.507C156.629 116.386 156.819 84.2446 136.937 63.9725C124.882 51.6806 108.675 46.2685 91.795 48.8968ZM108.217 52.0045C116.574 53.4946 125.443 57.6338 131.314 62.7833L133.108 64.3572L116.444 81.0527L99.7793 97.7477L83.2387 81.2117C64.4032 62.3815 65.8207 64.7716 71.1536 60.8306C76.9941 56.5144 84.2968 53.3581 91.4414 52.0617C95.8878 51.255 103.861 51.2279 108.217 52.0045ZM140.394 72.8946C142.773 76.4775 144.852 80.7297 146.159 84.6847C147.294 88.1239 148.649 95.0162 148.649 97.3563V98.6486H126.016H103.383L119.372 82.636L135.36 66.623L137.028 68.4806C137.945 69.5022 139.46 71.4887 140.394 72.8946ZM80.4054 82.8829L96.1662 98.6486H73.6941H51.2221L51.5185 95.3829C52.1243 88.7059 54.6176 81.0622 58.1104 75.1739C59.9423 72.0856 63.777 67.1171 64.3288 67.1171C64.5027 67.1171 71.7369 74.2117 80.4054 82.8829ZM97.75 101.689C97.7541 102.22 88.6266 147.053 88.4784 147.231C88.2662 147.486 82.4676 145.491 79.3302 144.083C71.8577 140.732 63.1171 132.958 58.6405 125.68C54.832 119.487 52.1559 111.6 51.5333 104.732L51.227 101.351H74.4874C87.2806 101.351 97.7487 101.503 97.75 101.689ZM148.649 102.644C148.649 104.714 147.407 111.259 146.368 114.66C142.178 128.389 130.641 140.587 117.209 145.489C110.594 147.903 107.617 148.409 100 148.417C96.1599 148.42 92.6883 148.287 92.2856 148.121C91.6324 147.852 91.8104 146.561 93.9315 136.184C95.2392 129.785 97.3748 119.33 98.677 112.95L101.045 101.351H124.847H148.649V102.644Z" fill="#2D5413" fill-opacity="0.5"/>
</svg>
